<?xml version="1.0" encoding="UTF-8" standalone="no"?>
<?xml-stylesheet type="text/css" href="drawing.css"?>
<svg
   xmlns:dc="http://purl.org/dc/elements/1.1/"
   xmlns:cc="http://creativecommons.org/ns#"
   xmlns:rdf="http://www.w3.org/1999/02/22-rdf-syntax-ns#"
   xmlns:svg="http://www.w3.org/2000/svg"
   xmlns="http://www.w3.org/2000/svg"
   xmlns:xlink="http://www.w3.org/1999/xlink"
   width="96.431mm"
   height="92.591408mm"
   viewBox="0 0 341.68462 328.07979"
   id="svg2"
   version="1.1">
  <defs
     id="defs4" />
  <metadata
     id="metadata7">
    <rdf:RDF>
      <cc:Work
         rdf:about="">
        <dc:format>image/svg+xml</dc:format>
        <dc:type
           rdf:resource="http://purl.org/dc/dcmitype/StillImage" />
        <dc:title></dc:title>
      </cc:Work>
    </rdf:RDF>
  </metadata>     id="layer2"
     style="display:none"
     transform="translate(-191.56549,-106.24631)" />
  <g
     id="layer3"
     style="display:inline;opacity:0.656"
     transform="translate(-191.56549,-106.24631)">
    <path
       style="display:inline;fill:#ffffff;fill-opacity:1;fill-rule:evenodd;stroke:#535353;stroke-width:0.5;stroke-linecap:butt;stroke-linejoin:miter;stroke-miterlimit:4;stroke-dasharray:none;stroke-opacity:1"
       d="m 302.54069,194.23762 c 0,0 -2.77792,-0.50508 -3.283,1.51523 -0.50507,2.0203 -0.25254,5.3033 -2.27284,11.36421 -2.02031,6.06092 1.76777,10.85914 1.76777,10.85914 0,0 0,3.283 0.75761,5.05076 0.75761,1.76777 1.01015,6.31346 3.78807,8.5863 2.77792,2.27284 1.26269,9.09137 7.57615,7.57614 6.31345,-1.51522 18.43528,-42.17386 -8.33376,-44.95178 z"
       id="path3454" />
    <path
       style="fill:none;fill-rule:evenodd;stroke:#000000;stroke-width:1px;stroke-linecap:butt;stroke-linejoin:miter;stroke-opacity:1"
       d="m 403.10347,307.3519 13.1434,3.92893 9.5,7.5 7.75,2.25 15,10.75 37,15 10.5,9.25 16.5,13.5 1.25,4.5 c 0,0 17.75,34 19,51.25 1.25,17.24999 -340.9018,3.04772 -340.9018,3.04772 l 12.72792,-50.91169 8.48528,-16.26345 c 0,0 12.82031,-14.25635 21.92031,-15.55635 9.8995,-1.41422 6.39192,-0.97048 9.8995,-1.41422 0,0 65.76093,-28.63939 72.12489,-34.64823 4.62725,-4.36904 -3.53553,4.24265 -3.53553,4.24265 l -4.94975,7.77817 c 0,0 7.77817,28.28427 15.55634,34.64823 7.77818,6.36396 17.67767,21.92031 28.28428,22.62742 10.6066,0.7071 15.55635,7.77817 35.35533,-8.48528 19.79899,-16.26346 23.33453,-29.69849 26.87006,-44.54773 3.53554,-14.84924 -12.72792,-21.2132 -12.72792,-21.2132 z"
       id="path5950" />
    <path
       style="display:inline;fill:#ffffff;fill-opacity:1;fill-rule:evenodd;stroke:#535353;stroke-width:0.5;stroke-linecap:butt;stroke-linejoin:miter;stroke-miterlimit:4;stroke-dasharray:none;stroke-opacity:1"
       d="m 320.31938,265.35236 c 0,0 4.91746,34.52885 -8.68732,52.12387 -11.76447,15.21496 31.947,71.26856 53.53809,65.65992 14.03179,-3.645 41.24345,-8.64959 51.0127,-55.05332 2.51196,-11.93173 -14.64721,-21.2132 -14.64721,-21.2132 0,0 -5.05077,-11.11168 -3.53554,-39.39595 0.99979,-18.6628 -17.18531,3.43605 -39.18441,4.46279 -12.56741,0.58655 -38.49631,-6.58411 -38.49631,-6.58411 z"
       id="path3452" />
    <path
       style="display:inline;fill:#ffffff;fill-opacity:1;fill-rule:evenodd;stroke:#9b9b9b;stroke-width:0.5;stroke-linecap:butt;stroke-linejoin:miter;stroke-miterlimit:4;stroke-dasharray:none;stroke-opacity:1"
       d="m 424.76915,198.02569 c 0,0 5.03114,-1.39679 8.33376,7.82868 3.09059,8.63323 -0.67094,18.03021 -3.53554,22.72843 -7.49922,12.29948 -16.66752,17.67767 -19.1929,14.89975 -5.80838,-7.82868 -3.97472,-3.72176 -6.06092,3.43452 -3.61879,4.97823 3.03046,15.50584 -15.40482,31.66828 -11.86929,14.89975 -33.0825,19.44544 -33.0825,19.44544 0,0 -20.45558,0.75761 -30.05203,-16.41498 -3.83715,-6.82453 -1.66118,-4.56258 -6.56832,-14.01173 -2.32838,-4.48352 -4.62617,-11.69735 -4.62617,-11.69735 -1.66519,-7.96036 -4.96795,-24.04093 -6.73572,-36.66784 -1.01015,-11.36422 1.38896,-19.69798 1.38896,-19.69798 l 0.12627,-50.76016 42.17387,-20.45558 47.98224,9.3439 14.39468,29.54697 -1.76777,39.14341 c 0,0 9.59645,-11.11168 12.62691,-8.33376 z"
       id="path3456" />
    <path
       id="path5719"
       style="display:inline;opacity:1;fill:none;stroke:#000000;stroke-width:0.5;stroke-miterlimit:4.19999981;stroke-dasharray:none;stroke-opacity:1"
       d="m 383.54188,202.66595 c 0,0.91245 -0.28487,1.75837 -0.77053,2.45367 -2.60108,1.07732 -6.16373,0.53397 -6.23006,0.87147 -0.96381,-0.78665 -1.57921,-1.98403 -1.57921,-3.32514 0.15753,-0.96299 0.20918,-2.17591 0.93988,-2.33348 3.25573,-0.70207 7.53963,-1.56517 7.63992,2.33348 z m -16.1494,0.81456 c 0,0 2.94863,-0.7202 3.36022,-1.02194 2.39288,-1.75421 7.50789,-3.10352 11.52639,-2.55401 2.20053,0.30091 4.07226,1.17121 4.98814,2.85622 0.22797,0.41939 -1.66308,1.11271 -2.46837,1.54887 -2.59167,1.4037 -9.20072,1.87094 -13.32775,0.5623 -1.27147,-0.40317 -3.90734,-0.49491 -4.07863,-1.39144 z" />
    <path
       style="fill:#3a3a3a;fill-opacity:1;fill-rule:evenodd;stroke:#000000;stroke-width:1px;stroke-linecap:butt;stroke-linejoin:miter;stroke-opacity:1"
       d="m 375.82725,200.29854 6.01041,-0.53033 c -0.53184,0 2.69076,4.64546 1.23744,5.12652 0,0 -2.2542,0.92759 -3.70554,0.80418 -1.91931,-0.1632 -3.55042,-0.10356 -3.54231,-0.0971 0,0 -2.29809,-5.12653 0,-5.3033 z"
       id="path5929" />
    <circle
       style="display:inline;opacity:1;fill:#000000;fill-opacity:1;stroke:#000000;stroke-width:0.5;stroke-miterlimit:4.19999981;stroke-dasharray:none;stroke-opacity:1"
       id="path5721"
       cx="379.80472"
       cy="202.8176"
       r="2.147855" />
    <path
       style="display:inline;fill:none;fill-rule:evenodd;stroke:#000000;stroke-width:0.5;stroke-linecap:butt;stroke-linejoin:miter;stroke-miterlimit:4;stroke-dasharray:none;stroke-opacity:1"
       d="m 340.29514,203.92246 c 0,0 -7.90066,-7.05811 -15.37957,-6.45235 -6.23119,0.5047 -6.18622,2.35143 -6.36397,2.2981 0,0 3.88909,2.82842 5.65686,3.27036 8.81729,0.0677 10.72445,-0.79894 12.28598,-0.13258 2.03239,0.8673 3.27037,0.83969 3.27037,0.83969 z"
       id="path5735" />
    <path
       style="display:inline;fill:none;fill-rule:evenodd;stroke:#000000;stroke-width:0.5;stroke-linecap:butt;stroke-linejoin:miter;stroke-miterlimit:4;stroke-dasharray:none;stroke-opacity:1"
       d="m 325.04815,197.5585 c 0,0 -3.2671,3.73849 0.97227,4.94974 3.71231,1.06067 5.83363,-0.83969 5.83363,-0.83969 l -0.26516,-2.87262 -6.36397,-1.28163 z"
       id="path5737" />
    <path
       style="display:inline;fill:#ffffff;fill-opacity:1;fill-rule:evenodd;stroke:#000000;stroke-width:0.2;stroke-linecap:butt;stroke-linejoin:miter;stroke-miterlimit:4;stroke-dasharray:none;stroke-opacity:1"
       d="m 357.16085,233.63795 c 0,0 0.59099,-0.67992 1.74003,0.11557 1.14905,0.7955 2.25391,1.76777 3.18199,1.23744 0.92807,-0.53033 -0.79296,-3.04468 -2.87263,-2.96101 -2.06355,0.083 -7.59723,11.14626 -15.46796,-0.83969 -1.14733,-1.74721 -2.47298,-1.27887 -3.36982,-0.83316 -0.96376,0.47896 -1.45168,1.00919 -1.27056,1.05413 0.69825,0.17325 3.56586,-0.25444 5.33363,0.89461"
       id="path5739" />
    <path
       style="fill:#161616;fill-opacity:1;fill-rule:evenodd;stroke:#000000;stroke-width:0.1;stroke-linecap:butt;stroke-linejoin:miter;stroke-opacity:1;stroke-miterlimit:4;stroke-dasharray:none"
       d="m 337.99687,249.03083 c -1.08333,0 -2.16667,0 -3.25,0 -0.25,0 -0.52639,-0.11181 -0.75,0 -0.0745,0.0373 0.0589,0.19107 0,0.25 -0.0878,0.0877 -1.07732,-0.0863 -1.25,0 -0.10541,0.0527 -0.14459,0.19729 -0.25,0.25 -0.15713,0.0786 -0.84287,-0.0786 -1,0 -0.0745,0.0373 0.0373,0.17546 0,0.25 -0.0527,0.10541 -0.16667,0.16666 -0.25,0.25 -0.0833,0.0833 -0.14459,0.19729 -0.25,0.25 -0.0745,0.0373 -0.19108,-0.0589 -0.25,0 -0.0589,0.0589 0.0589,0.19107 0,0.25 -0.0589,0.0589 -0.19108,-0.0589 -0.25,0 -0.0589,0.0589 0.0589,0.19107 0,0.25 -0.16783,0.16783 -0.33217,-0.16784 -0.5,0 -0.11785,0.11785 0.16667,0.5 0,0.5 -0.0833,0 0,-0.33334 0,-0.25 0,0.16666 0.0745,0.35092 0,0.5 -0.33333,0.66666 -0.25,-0.75 -0.25,0.25 0,0.58629 0.0589,-0.11786 -0.25,0.5 -0.0373,0.0745 0.0373,0.17546 0,0.25 -0.0527,0.10541 -0.1973,0.14459 -0.25,0.25 -0.0229,0.0459 0.0183,0.75 0,0.75 -0.0833,0 0.0589,-0.30893 0,-0.25 -0.11943,0.11943 -0.35663,0.64337 -0.25,0.75 0.11785,0.11785 0.38215,-0.11786 0.5,0 0.0589,0.0589 -0.0589,0.19107 0,0.25 0.0589,0.0589 0.17546,-0.0373 0.25,0 0.10541,0.0527 0.14459,0.19729 0.25,0.25 0.14907,0.0745 0.34189,-0.0527 0.5,0 1.81085,0.60361 -0.39415,-0.0721 0.75,0.5 0.0745,0.0373 0.17546,-0.0373 0.25,0 0.10541,0.0527 0.14459,0.19729 0.25,0.25 0.0745,0.0373 0.19107,-0.0589 0.25,0 0.0589,0.0589 -0.0589,0.19107 0,0.25 0.0589,0.0589 0.16667,0 0.25,0 0.0833,0.0833 0.18463,0.15194 0.25,0.25 0.10336,0.15504 0.19107,0.32322 0.25,0.5 0.10345,0.31035 -0.20523,0.27238 0.25,0.5 0.26667,0.13333 0.23333,-0.13334 0.5,0 0.10541,0.0527 0.14459,0.19729 0.25,0.25 0.0745,0.0373 0.16667,0 0.25,0 0.0833,0.0833 0.14459,0.19729 0.25,0.25 0.14907,0.0745 0.38215,-0.11786 0.5,0 0.0589,0.0589 -0.0589,0.19107 0,0.25 0.0589,0.0589 0.17094,-0.0264 0.25,0 0.17678,0.0589 0.33333,0.16666 0.5,0.25 0.16667,0.0833 0.34022,0.15413 0.5,0.25 0.4639,0.27834 1.38714,0.94761 1.75,1.25 2.16264,1.8022 -0.92109,-0.53073 1,0.75 0.0981,0.0654 0.14459,0.19729 0.25,0.25 0.0745,0.0373 0.16667,0 0.25,0 0.25,0 0.5,0 0.75,0 1.08333,0 2.16667,0 3.25,0 0.33333,0 0.66667,0 1,0 0.16667,0 0.33333,0 0.5,0 0.0833,0 0.19107,-0.0589 0.25,0 0.0589,0.0589 -0.0589,0.19107 0,0.25 0.0589,0.0589 0.16667,0 0.25,0 0.25,0 0.5,0 0.75,0 0.91667,0 1.83333,0 2.75,0 0.33333,0 0.6712,0.0548 1,0 0.33892,-0.0565 0.65986,-0.20141 1,-0.25 0.24749,-0.0354 0.50251,0.0354 0.75,0 2.4574,-0.35106 -0.62075,-0.25 2.25,-0.25 1.75,0 3.5,0 5.25,0 0.58333,0 1.16667,0 1.75,0 0.16667,0 0.33333,0 0.5,0 0.0833,0 0.17094,0.0264 0.25,0 0.17678,-0.0589 0.32322,-0.19108 0.5,-0.25 0.0791,-0.0264 0.16915,0.0202 0.25,0 0.25565,-0.0639 0.49434,-0.18609 0.75,-0.25 0.0808,-0.0202 0.19107,0.0589 0.25,0 0.0589,-0.0589 -0.0589,-0.19108 0,-0.25 0.0589,-0.0589 0.16667,0 0.25,0 0.16667,0 0.33333,0 0.5,0 0.91667,0 1.83333,0 2.75,0 0.0665,0 0.72936,0.0413 0.75,0 0.0745,-0.14908 -0.0527,-0.34189 0,-0.5 0.16583,-0.49749 0.23333,-0.11667 0.5,-0.25 0.10541,-0.0527 0.14459,-0.1973 0.25,-0.25 0.0745,-0.0373 0.19107,0.0589 0.25,0 0.0589,-0.0589 -0.0589,-0.19108 0,-0.25 0.0589,-0.0589 0.17546,0.0373 0.25,0 1.04044,-0.52022 -0.26726,0.0173 0.25,-0.5 0.0589,-0.0589 0.17546,0.0373 0.25,0 0.10541,-0.0527 0.14459,-0.1973 0.25,-0.25 0.14907,-0.0745 0.35093,0.0745 0.5,0 1.14415,-0.57208 -1.06085,0.10361 0.75,-0.5 0.0791,-0.0264 0.19107,0.0589 0.25,0 0.0589,-0.0589 -0.0373,-0.17547 0,-0.25 0.0527,-0.10541 0.19729,-0.14459 0.25,-0.25 0.13333,-0.26667 -0.13333,-0.23334 0,-0.5 0.0527,-0.10541 0.19729,-0.14459 0.25,-0.25 0.0373,-0.0745 -0.0589,-0.19108 0,-0.25 0.0589,-0.0589 0.19107,0.0589 0.25,0 0.0589,-0.0589 -0.0373,-0.17547 0,-0.25 0.0527,-0.10541 0.19729,-0.14459 0.25,-0.25 0.0373,-0.0745 -0.0589,-0.19108 0,-0.25 0.0589,-0.0589 0.19107,0.0589 0.25,0 0.0589,-0.0589 -0.0589,-0.19108 0,-0.25 0.11785,-0.11786 0.34189,0.0527 0.5,0 0.17678,-0.0589 0.32322,-0.19108 0.5,-0.25 0.32912,-0.10971 0.52928,0.19144 0.75,-0.25 0.22222,-0.44445 -0.13889,-0.13889 -0.25,-0.25 -0.0589,-0.0589 0.0589,-0.19108 0,-0.25 -0.0589,-0.0589 -0.17546,0.0373 -0.25,0 -0.21082,-0.10541 -0.28918,-0.39459 -0.5,-0.5 -0.0745,-0.0373 -0.17546,0.0373 -0.25,0 -0.10541,-0.0527 -0.15194,-0.18463 -0.25,-0.25 -0.15504,-0.10337 -0.36824,-0.11824 -0.5,-0.25 -0.0589,-0.0589 0.0589,-0.19108 0,-0.25 -0.0589,-0.0589 -0.19108,0.0589 -0.25,0 -0.0589,-0.0589 0.0589,-0.19108 0,-0.25 -0.11785,-0.11786 -0.35093,0.0745 -0.5,0 -0.10541,-0.0527 -0.14459,-0.1973 -0.25,-0.25 -0.0745,-0.0373 -0.17546,0.0373 -0.25,0 -0.10541,-0.0527 -0.14459,-0.1973 -0.25,-0.25 -0.14647,-0.0732 -1.06578,0.0461 -1.25,0 -0.18078,-0.0452 -0.32322,-0.19108 -0.5,-0.25 -0.32596,-0.10866 -0.66963,-0.15561 -1,-0.25 -0.25338,-0.0724 -0.5,-0.16667 -0.75,-0.25 -0.25,-0.0833 -0.52403,-0.11442 -0.75,-0.25 -0.20211,-0.12127 -0.28918,-0.39459 -0.5,-0.5 -0.14907,-0.0745 -0.34189,0.0527 -0.5,0 -0.1118,-0.0373 -0.14459,-0.1973 -0.25,-0.25 -0.14907,-0.0745 -0.38215,0.11785 -0.5,0 -0.0589,-0.0589 0.0589,-0.19108 0,-0.25 -0.0589,-0.0589 -0.16667,0 -0.25,0 -0.0833,0 -0.16667,0 -0.25,0 -0.41667,0 -0.83333,0 -1.25,0 -3.25,0 -6.5,0 -9.75,0 -2.91667,0 -5.83333,0 -8.75,0 -1.08333,0 -2.16667,0 -3.25,0 -0.33333,0 -0.66667,0 -1,0 -0.25,0 -0.5034,0.0411 -0.75,0 -0.41914,-0.0699 -0.83333,-0.16667 -1.25,-0.25 z"
       id="path5952" />
    <path
       style="fill:#ffffff;fill-opacity:1;fill-rule:evenodd;stroke:#000000;stroke-width:0.2;stroke-linecap:butt;stroke-linejoin:miter;stroke-miterlimit:4;stroke-dasharray:none;stroke-opacity:1"
       d="m 371.1875,251.98721 c 0,0 0.1875,2.6875 -0.1875,3.25 -0.375,0.5625 -2.375,-0.0625 -2.5,-0.5625 -0.125,-0.5 -0.0625,1.5 -1.25,2.125 -1.1875,0.625 -2,-1.5625 -2,-1.5625 0,0 -0.5625,2.875 -2.25,2.5625 -1.6875,-0.3125 -2.1875,-1 -2.1875,-1 l -0.4375,-1.25 c 0,0 -0.6875,3.1875 -2.0625,2.6875 -1.375,-0.5 -2.4375,-0.1875 -2.875,-2.25 -0.4375,-2.0625 -0.5625,1.5 -0.5625,1.5 0,0 -5.1875,-0.0625 -5.6875,-0.6875 -0.5,-0.625 -0.3125,-1.3125 -0.3125,-1.3125 l -0.4375,1.3125 c 0,0 -4.75,0.3125 -5.1875,-0.75 -0.4375,-1.0625 -0.3125,-1.625 -0.3125,-1.625 l -0.4375,1.75 c 0,0 -2.0625,0.5 -2.9375,-1.4375 -0.875,-1.9375 -0.125,1.125 -0.125,1.125 0,0 -1.5625,0.6875 -2,-0.125 -0.4375,-0.8125 -0.75,-1.5625 -0.75,-1.5625 0,0 -1.875,-1.3125 -2.0625,-2.375 -0.1875,-1.0625 13.85095,-0.39461 13.85095,-0.39461 7.85323,0.18024 14.76784,-1.39611 22.71155,0.58211 z"
       id="path5763" />
    <path
       style="fill:#ffffff;fill-opacity:1;fill-rule:evenodd;stroke:#000000;stroke-width:0.2;stroke-linecap:butt;stroke-linejoin:miter;stroke-miterlimit:4;stroke-dasharray:none;stroke-opacity:1"
       d="m 374.125,252.61221 c 0.69963,0.41978 -15.10409,-5.11245 -16.8125,-6.375 -0.81823,-0.60469 -2.6875,-0.1875 -2.6875,-0.1875 0,0 -4.375,1.6875 -5.4375,1.5 -1.0625,-0.1875 -1.83233,1.66412 -7,-2.5 -0.48666,-0.39215 -11.84804,2.6201 -13.75,7.375 -1,2.5 1.5625,0.625 1.5625,0.625 0,0 0.875,-2.5625 2.625,-2.5625 1.75,0 14.75,0.5625 15.875,0.875 1.125,0.3125 18.625,-0.3125 21.75,0.4375 3.125,0.75 3.375,1.4375 3.375,1.4375 0,0 -1,1.5 -2.0625,2.0625 -1.0625,0.5625 -6.6875,2.375 -8.875,2.6875 -2.1875,0.3125 -13.9375,0.3125 -14.75,0.375 -0.8125,0.0625 -4.625,1.1875 -8.375,-0.0625 -3.75,-1.25 -7.8125,-3.8125 -8.75,-4.3125 -0.9375,-0.5 -2.125,0.5625 -2.125,0.5625 0,0 0.75,-0.1875 1.5625,-0.1875 0.8125,0 7.3125,10 11.4375,10.9375 4.125,0.9375 9,1.75 15.5,-0.1875 6.5,-1.9375 10.3125,-4.5 13.25,-6.9375 2.9375,-2.4375 3.6875,-5.5625 3.6875,-5.5625 z"
       id="path5792" />
    <path
       style="fill:#000000;fill-opacity:1;fill-rule:evenodd;stroke:#000000;stroke-width:1.52499998;stroke-linecap:butt;stroke-linejoin:miter;stroke-miterlimit:4;stroke-dasharray:none;stroke-opacity:1"
       d="m 408.375,202.11221 1.25,1.75 -1.25,-0.625 0.5,1.375 -0.625,0 0.5,1.375 -1.25,0.125 1,1.625 0.25,-1 0.625,1.375 -1.25,0.625 1.375,1.75 0.125,-1 0.875,1.125 -1.25,0.125 1.25,2.375 0.375,1.375 0.125,0.625 0.875,-3 0.125,2.375 1,-3.75 0.125,1.125 1.25,-3.5 0,2 1.125,-3.875 0.125,1.875 0.625,-5.125 0.625,2.875 0.75,-5.5 0.75,2 0.625,-2.75 0.5,1.75 1.125,-4 0.25,2.625 1.5,-1.25 2.5,-1 -0.75,-3.75 1.125,1.25 -1.125,-3.125 1.25,1 -1.125,-3.625 2,2.375 -0.75,-6.375 1.125,2.625 -0.75,-4.5 1.5,1.75 -1.75,-5.5 1.625,0.625 -1.25,-4.875 1.125,0.75 -2,-6.375 2,1.875 -2.75,-5.75 2.25,2.25 -1.5,-5.625 1.5,1.5 -1.375,-3.75 1.875,2.125 -2.75,-5.625 2.625,2.25 -2.25,-4.5 2.125,1.5 -2.125,-3.875 2.125,1.125 -2.625,-4 3.875,3.125 -3.75,-6 2,0.625 -3.125,-3.875 2,0.5 -1.875,-3.5 1.625,0.25 -1.625,-3.875 -0.625,1.5 -1,-3 -1.375,1.5 -3,-3.125 -3.25,-4.5 0.375,2.625 -3.5,-4.625 0.625,2.25 -3.875,-4.75 -0.375,1.75 -3,-3.625 -0.375,1.75 -2.125,-3.375 0.25,2.25 -2.875,-4.5 -1,1 -3.625,-3.5 1.375,2.5 -4.625,-4.25 1.125,2.375 -3.375,-2.875 0.75,2 -3.125,-3.25 1,1.625 -2.875,-3.375 1.375,3 -2.375,-2.75 -2,-0.75 0.75,1.625 -2.375,-2.5 -4.125,-1.625 -2,0 3,1.125 -0.25,2.25 -3.5,-2.625 1.25,1.75 -2.875,-2.25 -0.5,2.125 -2.875,-2.625 -4.625,-1.125 2.5,1.625 -5.625,-0.875 2.625,2.125 -4.5,-1.25 2.125,2 -6,-2 2.75,2.25 -2.875,-1 0.5,1.5 -3.5,-1.625 1.125,2.125 -4,-0.875 1.625,1.625 -5.875,-0.5 1.875,1.5 -6.375,-0.25 3.75,1.75 -6.25,-0.625 -4.125,0.5 3.625,0.875 -5.75,-0.25 1.625,1.625 -2.375,0.125 0.75,1 -3.875,0 2.25,1.375 -3.75,0 1.5,1.125 -3.5,0.125 2,1.375 -3.375,1.375 2.5,0.125 -5.125,1.125 2.5,0.25 -3.375,1.375 3.25,0.25 -4.75,1.375 3.25,0.875 -5.5,-0.375 1.125,1.5 -3.75,0.5 -1.375,2.625 2.25,-1.75 0.75,1.125 -2.75,1.25 -1.25,1.75 2.25,-0.875 -3,3.375 2.25,-0.5 -4.125,4.5 2.125,-0.75 -2.875,4.125 1.875,0.25 -3.5,1.625 1.25,0 -2.375,3.5 2.125,-1.125 -4.125,4.375 3.25,-1.75 -2.875,4.125 1.5,-1.25 -2.25,4.625 2.125,-2.125 -3.625,4.25 1.875,-0.75 -1.125,3.625 1.375,-1.375 -1.625,4.875 1.125,-1.375 -0.875,3.375 1.125,-0.875 -0.875,4 1.75,0 -1.5,3.625 1.25,-0.625 -1.375,4.375 1.625,-2 -1,4.5 1.25,-0.875 -0.5,5.375 1.25,-2.125 -0.875,3.5 0.875,-0.625 0.625,1.25 -0.5,3.375 1.375,-1.25 -1.5,3.375 1.25,-0.75 0,3.25 1.375,-1.25 -1.625,4 1.375,-0.625 -1.125,3.875 1.375,-1.125 -0.25,2.875 0.875,-1.25 0,3.375 1.25,-6.75 1,-3.375 -0.25,-14.625 c 0,0 -0.38388,-13.83731 0.11612,-16.83731 0.22841,-1.37048 0.41992,-3.42336 0.56058,-5.24915 0.16725,-2.17091 1.32326,-6.67242 1.32326,-6.67242 l 1.74209,-2.39809 1.57346,3.21809 1.25374,-4.4424 0.95991,3.8324 c 2.04411,1.39169 -3.27416,-23.57977 4.71812,-0.77468 l 1.94145,3.08161 0.92962,-4.17067 1.72259,6.10347 1.16219,-6.33847 1.59848,6.0116 2.67638,-5.50508 2.46286,2.6589 3.37124,-3.19625 2.63338,2.59721 2.8503,-4.68805 c 6.20964,2.74575 1.20519,-6.59939 8.0223,2.40363 l 2.78374,-0.37388 c 1.54729,0.71082 2.61617,-7.80305 4.64245,-0.86534 l 3.01491,2.43407 4.49535,-2.7942 -1.00482,4.1201 3.91819,-4.12968 0.0778,4.91894 c 1.86231,-0.26724 3.05081,-8.19221 3.81916,-0.80173 l 6.51003,-8.29278 -1.71331,7.30334 5.16272,-5.33956 -2.34862,5.46075 4.97838,-5.97649 -1.73083,5.72581 4.78034,-6.69319 -1.03841,4.66959 5.95476,-5.85981 -1.90573,6.16102 c 2.28016,-0.74003 4.71712,-6.03779 8.25469,-3.63431 0.28273,1.77056 1.17061,-3.08679 2.14216,-1.56048 1.01451,1.59381 2.08829,9.57306 1.1153,11.53279 -1.39005,2.79974 -1.7925,-4.01355 -0.1437,8.2574 0.12885,0.95893 1.98496,7.57435 1.98496,7.57435 2.14522,2.36754 3.64747,4.60481 4.63372,7.23447 1.0037,2.67618 0.59936,7.78673 0.97746,10.87266 0.36896,3.01139 -0.74758,5.21412 -2.17468,9.53909"
       id="path5803" />
    <path
       style="fill:#000000;fill-opacity:1;fill-rule:evenodd;stroke:#000000;stroke-width:1px;stroke-linecap:butt;stroke-linejoin:miter;stroke-opacity:1"
       d="m 382.89832,191.10615 3.18198,0.53033 -2.12132,-0.17678 4.41942,1.23744 -1.94455,-1.32583 c 1.76777,0.20624 2.41568,2.27892 5.30331,0.61872 l -1.94455,1.41421 3.35876,-0.61871 2.2981,0.44194 1.23743,0.17677 -0.88388,0.53033 2.12132,0 -1.76777,0.53033 2.65165,0.88389 1.76777,-0.53033 -2.2981,-2.12132 0.88389,-0.35356 -4.77297,-1.94454 2.65165,0.17678 -4.06587,-1.76777 -0.53033,0.70711 -5.03813,-2.38649 -1.06066,0.70711 -2.38649,-1.5026 -1.41421,0.0884 -2.12132,0.26517 -1.85616,-0.26516 -2.56326,-0.0884 -1.23743,0.35355 -1.76777,0.53033 -1.5026,-0.0884 -3.88909,-0.26516 1.85615,1.06066 -5.21491,-0.26516 0.79549,0.26516 -3.88908,0.88388 3.53553,0.35355 -3.8007,2.47488 3.35876,-0.26516 3.27036,-0.70711 0.35356,0.44194 -3.18197,0.26516 -1.32584,0.97227 5.3917,-0.35355 4.41941,-0.88388 3.18198,-0.70711 3.18198,-0.70711 -6.54073,1.94455 8.3085,-1.41422 -1.59099,1.23744 z"
       id="path5805" />
    <path
       style="fill:#000000;fill-opacity:1;fill-rule:evenodd;stroke:#000000;stroke-width:1px;stroke-linecap:butt;stroke-linejoin:miter;stroke-opacity:1"
       d="m 338.88092,190.39904 -5.65685,-4.24264 -0.7955,-0.44194 c 1.11959,1.00173 -3.09359,-0.0884 -3.09359,-0.0884 l -2.47487,-0.88388 -2.74004,0.0884 -4.68458,0.53034 -0.0884,0.0884 -2.38647,0.0884 -4.06587,1.85616 3.71231,-0.35356 -5.3033,2.2981 2.2981,-0.35355 -3.27037,1.67938 0.61872,-0.0884 -1.67938,1.5026 2.38648,-0.26517 -0.0884,0.17678 2.56326,-0.70711 2.74003,-1.23743 0.44195,0.7071 3.44714,-1.94454 0.44194,0.88388 2.38649,-1.06066 4.68458,-0.17677 -4.24264,-0.17678 7.42462,1.41421 -2.38648,1e-5 6.09879,0.17677 z"
       id="path5807" />
    <path
       style="fill:#2e2e2e;fill-opacity:1;fill-rule:evenodd;stroke:#000000;stroke-width:0.5;stroke-linecap:butt;stroke-linejoin:miter;stroke-miterlimit:4;stroke-dasharray:none;stroke-opacity:1"
       d="m 333.22407,199.59143 -0.53033,3.35876 c 0,0 -5.83363,1.41421 -7.95495,-0.35356 -2.12132,-1.76776 -1.50261,-5.12652 -1.50261,-5.12652 l 8.57368,1.23744 -0.35356,1.76776 -1.59099,-1.23743 -2.82842,-0.88389 c 0,0 -2.65166,1.23744 -0.70711,3.00521 1.94454,1.76776 5.3033,-0.35356 5.3033,-0.35356 z"
       id="path5809" />
    <path
       style="fill:none;fill-rule:evenodd;stroke:#000000;stroke-width:0.2;stroke-linecap:butt;stroke-linejoin:miter;stroke-miterlimit:4;stroke-dasharray:none;stroke-opacity:1"
       d="m 370.1704,232.29512 c 0,0 0,0 7.60139,7.95495 0.83972,0.87877 0,0 3.75742,7.10488 0.21545,0.40739 0.30845,0.67329 0.30845,0.67329 0,0 1.41421,4.41942 -0.17678,9.19239 -1.59099,4.77297 -1.41421,3.53554 -1.41421,3.53554 l 0,0.88388"
       id="path5815" />
    <path
       style="fill:none;fill-rule:evenodd;stroke:#000000;stroke-width:0.2;stroke-linecap:butt;stroke-linejoin:miter;stroke-miterlimit:4;stroke-dasharray:none;stroke-opacity:1"
       d="m 335.52217,227.52215 c 0,0 -3.88909,0.35355 -10.78338,15.20279"
       id="path5817" />
    <path
       style="display:inline;fill:none;fill-rule:evenodd;stroke:#000000;stroke-width:0.1;stroke-linecap:butt;stroke-linejoin:miter;stroke-miterlimit:4;stroke-dasharray:none;stroke-opacity:1"
       d="m 307.2379,216.03166 c 0,0 -1.32583,4.06587 0.26516,5.65686 1.59099,1.59099 1.32583,5.12652 1.32583,5.12652 l -1.76777,-3.71231 -2.2981,-0.17678 c 0,0 -3.35876,-6.71751 -1.06066,-9.01561"
       id="path5821" />
    <path
       style="display:inline;fill:#ffffff;fill-opacity:1;fill-rule:evenodd;stroke:#000000;stroke-width:0.2;stroke-linecap:butt;stroke-linejoin:miter;stroke-miterlimit:4;stroke-dasharray:none;stroke-opacity:1"
       d="m 303.17203,206.48572 -2.47487,6.36396 c 0,0 -0.88389,7.42462 1.23743,11.13693 2.12133,3.71231 -2.65165,-6.0104 -2.65165,-6.0104 l -1.59099,-10.07628 c 0,0 1.23744,-3.53553 1.59099,-4.77297 0.35356,-1.23743 0.17678,-6.36396 1.06066,-6.36396 0.88389,0 3.18198,1.41422 3.18198,2.82843"
       id="path5823" />
    <path
       style="display:inline;fill:none;fill-rule:evenodd;stroke:#000000;stroke-width:0.2;stroke-linecap:butt;stroke-linejoin:miter;stroke-miterlimit:4;stroke-dasharray:none;stroke-opacity:1"
       d="m 417.90011,211.43547 -1.94455,3.71231 c 0,0 4.41942,8.3085 0.17678,10.78338 -4.24264,2.47487 -5.65685,5.48007 -3.53553,4.59619 2.12132,-0.88388 4.94974,-4.59619 5.65685,-4.59619"
       id="path5825" />
    <path
       style="display:inline;fill:none;fill-rule:evenodd;stroke:#000000;stroke-width:0.1;stroke-linecap:butt;stroke-linejoin:miter;stroke-miterlimit:4;stroke-dasharray:none;stroke-opacity:1"
       d="m 422.4963,202.0663 c 0,0 9.61922,-2.559 9.54594,13.61181 -0.021,4.64361 -2.45988,3.93859 -2.45988,3.93859 -0.6039,9.10214 -7.96994,13.20875 -7.96994,13.20875 0,0 6.36396,-4.24264 6.54073,-13.61181 0.17678,-9.36916 2.12133,-13.96536 -5.65685,-17.14734"
       id="path5827" />
    <path
       style="display:inline;fill:none;fill-rule:evenodd;stroke:#000000;stroke-width:0.5;stroke-linecap:butt;stroke-linejoin:miter;stroke-miterlimit:4;stroke-dasharray:none;stroke-opacity:1"
       d="m 391.75,200.48721 c 0,0 -5.875,-13.875 -25,0.25"
       id="path5829" />
    <path
       style="display:inline;fill:none;fill-rule:evenodd;stroke:#000000;stroke-width:0.5;stroke-linecap:butt;stroke-linejoin:miter;stroke-miterlimit:4;stroke-dasharray:none;stroke-opacity:1"
       d="m 316.375,195.48721 c 0,0 11.875,-10.875 25,6.125"
       id="path5831" />
    <path
       style="display:inline;fill:none;fill-rule:evenodd;stroke:#000000;stroke-width:0.2;stroke-linecap:butt;stroke-linejoin:miter;stroke-miterlimit:4;stroke-dasharray:none;stroke-opacity:1"
       d="m 377,250.61221 c 0,0 2.25,3 1,6.25"
       id="path5833" />
    <path
       style="fill:none;fill-rule:evenodd;stroke:#000000;stroke-width:0.2;stroke-linecap:butt;stroke-linejoin:miter;stroke-miterlimit:4;stroke-dasharray:none;stroke-opacity:1"
       d="m 342.15129,223.98661 c 0.0399,0.005 -10.65802,1.66257 -5.27684,8.39347 0.338,0.42278 4.79981,0.86218 4.79981,0.86218"
       id="path5842" />
    <path
       style="fill:none;fill-rule:evenodd;stroke:#000000;stroke-width:0.2;stroke-linecap:butt;stroke-linejoin:miter;stroke-miterlimit:4;stroke-dasharray:none;stroke-opacity:1"
       d="m 364.51354,226.80984 c 0,0 6.18719,9.28598 -1.85615,9.1092"
       id="path5844" />
    <path
       style="display:inline;fill:none;fill-rule:evenodd;stroke:#000000;stroke-width:0.60000002;stroke-linecap:butt;stroke-linejoin:miter;stroke-miterlimit:4;stroke-dasharray:none;stroke-opacity:1"
       d="m 332.5,189.86221 c 0,0 16.25,7 12.25,17"
       id="path5848" />
    <ellipse
       style="display:inline;opacity:0;fill:none;stroke:#000000;stroke-width:0.30000001;stroke-miterlimit:4;stroke-dasharray:none;stroke-opacity:1"
       id="path5697"
       cx="379.46429"
       cy="203.6122"
       rx="1.0714285"
       ry="3.75" />
    <ellipse
       style="display:inline;opacity:0;fill:none;stroke:#000000;stroke-width:0.1;stroke-miterlimit:4;stroke-dasharray:none;stroke-opacity:1"
       id="path5699"
       cx="380.55804"
       cy="202.71935"
       rx="2.4330356"
       ry="1.875" />
    <ellipse
       style="display:inline;opacity:0;fill:none;stroke:#000000;stroke-width:0.1;stroke-miterlimit:4;stroke-dasharray:none;stroke-opacity:1"
       id="path5701"
       cx="379.2634"
       cy="202.71935"
       rx="1.8973215"
       ry="1.4732143" />
    <ellipse
       style="display:inline;opacity:0;fill:none;stroke:#000000;stroke-width:0.1;stroke-miterlimit:4;stroke-dasharray:none;stroke-opacity:1"
       id="path5703"
       cx="391.74106"
       cy="208.1881"
       rx="1.9196428"
       ry="1.6294643" />
    <path
       style="fill:#000000;fill-opacity:1;fill-rule:evenodd;stroke:#000000;stroke-width:1px;stroke-linecap:butt;stroke-linejoin:miter;stroke-opacity:1"
       d="m 328.80465,198.53077 -1.06066,-1.06066 -1.94454,0 c 0,0 -0.53033,5.3033 2.2981,4.41942 2.82842,-0.88389 4.59619,-1.94455 4.59619,-1.94455 l -4.59619,-2.47487 0,0"
       id="path5927" />
    <path
       transform="translate(296.49688,106.24631)"
       style="fill:none;fill-rule:evenodd;stroke:#000000;stroke-width:0.69999999;stroke-linecap:butt;stroke-linejoin:miter;stroke-miterlimit:4;stroke-dasharray:none;stroke-opacity:1"
       d="m 61.739253,126.6998 c 0.01738,0.071 -0.415139,0.0308 -0.441942,0.0442 -0.01318,0.007 -0.01042,0.0338 0,0.0442 0.02083,0.0208 0.06044,-0.009 0.08839,0 0.03125,0.0104 0.05714,0.0338 0.08839,0.0442 0.02795,0.009 0.06755,-0.0208 0.08839,0 0.01042,0.0104 -0.01042,0.0338 0,0.0442 0.01042,0.0104 0.03102,-0.007 0.04419,0 0.03727,0.0186 0.04886,0.0752 0.08839,0.0884 0.0083,0.003 0.259693,0.002 0.265165,0 0.03125,-0.0104 0.05714,-0.0338 0.08839,-0.0442 0.02795,-0.009 0.05893,0 0.08839,0 0.07366,0 0.147314,0 0.220971,0 0.07366,0 0.147314,0 0.220971,0 0.01473,0 0.02946,0 0.04419,0 0.01473,0 0.03241,-0.009 0.04419,0 0.01279,0.01 0.234711,0.24994 0.265165,0.26517 0.07823,0.0391 0.0151,-0.0657 0.08839,0.0442 0.117851,0.17678 -0.04419,0.0147 0.132582,0.13258 0.01733,0.0116 0.02443,0.0376 0.04419,0.0442 0.02795,0.009 0.06044,-0.009 0.08839,0 0.03953,0.0132 0.05112,0.0697 0.08839,0.0884 0.01318,0.007 0.03102,-0.007 0.04419,0 0.01863,0.009 0.02556,0.0349 0.04419,0.0442 0.01318,0.007 0.04419,-0.0147 0.04419,0 0,0.0208 -0.02398,0.0391 -0.04419,0.0442 -0.04287,0.0107 -0.08839,0 -0.132582,0 -0.04419,0 -0.08899,0.007 -0.132583,0 -0.04791,-0.008 -0.172883,-0.0563 -0.22097,-0.0884 -0.01036,-0.007 -0.05465,-0.0779 -0.08839,-0.0442 -0.03251,0.0325 0.03556,0.0798 0.04419,0.0884 0.0442,0.0442 0.08839,0.0884 0.132583,0.13258 0.01473,0.0147 0.02686,0.0326 0.04419,0.0442 0.101616,0.0677 0.119355,0.0206 0.220971,0.0884 0.03985,0.0266 0.150993,0.16819 0.176777,0.17678 0.02795,0.009 0.06044,-0.009 0.08839,0 0.03953,0.0132 0.05112,0.0698 0.08839,0.0884 0.02635,0.0132 0.06755,-0.0208 0.08839,0 0.02329,0.0233 0.0209,0.0651 0.04419,0.0884 0.01355,0.0136 0.207313,-0.0137 0.220971,0 0.01042,0.0104 -0.01042,0.0338 0,0.0442 0.02083,0.0208 0.06204,-0.0132 0.08839,0 0.01863,0.009 0.02556,0.0349 0.04419,0.0442 0.01318,0.007 0.03378,-0.0104 0.04419,0 0.01042,0.0104 -0.01042,0.0338 0,0.0442 0.01042,0.0104 0.03102,-0.007 0.0442,0 0.09429,0.0472 -0.0059,0.0412 0.08839,0.0884 0.01318,0.007 0.03102,-0.007 0.04419,0 0.01863,0.009 0.02946,0.0295 0.04419,0.0442 0.01473,0.0147 0.03488,0.0256 0.04419,0.0442 0.0066,0.0132 -0.01042,0.0338 0,0.0442 0.01042,0.0104 0.03102,-0.007 0.0442,0 0.01863,0.009 0.03488,0.0256 0.04419,0.0442 0.0066,0.0132 -0.01318,0.0376 0,0.0442 0.02635,0.0132 0.06204,-0.0132 0.08839,0 0.01318,0.007 -0.01042,0.0338 0,0.0442 0.01042,0.0104 0.02946,0 0.04419,0 0.01473,0 0.02946,0 0.0442,0 0.103643,0 -0.02083,-0.0104 0.08839,0.0442 0.0038,0.002 0.173009,0.002 0.176777,0 0.08302,-0.0415 0.07379,-0.16218 0.132582,-0.22097 0.02329,-0.0233 0.06098,-0.0259 0.08839,-0.0442 0.01873,-0.0125 0.12344,-0.11429 0.132583,-0.13258 0.0066,-0.0132 -0.01042,-0.0338 0,-0.0442 0.01042,-0.0104 0.03378,0.0104 0.04419,0 0.0035,-0.004 0,-0.18619 0,-0.22097 0,-0.17265 0.01318,-0.005 -0.04419,-0.17678 -0.0047,-0.014 0.01042,-0.0338 0,-0.0442 -0.02329,-0.0233 -0.06098,-0.0259 -0.08839,-0.0442 -0.0608,-0.0405 -0.04545,-0.0682 -0.08839,-0.13258 -0.01156,-0.0173 -0.02946,-0.0295 -0.04419,-0.0442 -0.01473,-0.0147 -0.02946,-0.0295 -0.04419,-0.0442 -0.02946,-0.0147 -0.0651,-0.0209 -0.08839,-0.0442 -0.02329,-0.0233 -0.02443,-0.062 -0.0442,-0.0884 -0.05,-0.0667 -0.126776,-0.11011 -0.176776,-0.17678 -0.01976,-0.0264 -0.02443,-0.062 -0.04419,-0.0884 -0.025,-0.0333 -0.06236,-0.0558 -0.08839,-0.0884 -0.223002,-0.27875 0.03664,-0.008 -0.176777,-0.22097 -0.02946,-0.0295 -0.05893,-0.0589 -0.08839,-0.0884 -0.01473,-0.0147 -0.02556,-0.0349 -0.04419,-0.0442 -0.04419,-0.0147 -0.08839,-0.0295 -0.132583,-0.0442 -0.01473,-0.0147 -0.02556,-0.0349 -0.04419,-0.0442 -0.04167,-0.0208 -0.09264,-0.0202 -0.132582,-0.0442 -0.03573,-0.0214 -0.05112,-0.0698 -0.08839,-0.0884 -0.25868,-0.12934 -0.09536,0.0248 -0.265165,-0.0884 -0.04023,-0.0268 -0.09341,-0.113 -0.132582,-0.13258 -0.01318,-0.007 -0.03102,0.007 -0.04419,0 -0.03376,-0.0169 -0.102657,-0.12261 -0.132583,-0.13258 -0.02795,-0.009 -0.06044,0.009 -0.08839,0 -0.01976,-0.007 -0.02946,-0.0295 -0.04419,-0.0442 -0.01473,-0.0147 -0.03488,-0.0256 -0.0442,-0.0442 -0.0066,-0.0132 0.01042,-0.0338 0,-0.0442 -0.172478,-0.17247 -0.02373,0.0102 -0.132582,-0.0442 -0.01863,-0.009 -0.02556,-0.0349 -0.04419,-0.0442 -0.01318,-0.007 -0.03022,0.005 -0.04419,0 -0.03125,-0.0104 -0.05714,-0.0338 -0.08839,-0.0442 -0.02573,-0.009 -0.234756,0 -0.265165,0 -0.01473,0 -0.02946,0 -0.04419,0 -0.01473,0 -0.03378,-0.0104 -0.04419,0 -0.01042,0.0104 0.01042,0.0338 0,0.0442 -0.01042,0.0104 -0.03378,-0.0104 -0.04419,0 -0.02083,0.0208 0.01318,0.062 0,0.0884 -0.0093,0.0186 -0.03488,0.0256 -0.04419,0.0442 -0.0066,0.0132 0.0066,0.031 0,0.0442 -0.03479,0.0696 -0.111007,0.17165 -0.176776,0.22097 -0.02635,0.0198 -0.05893,0.0295 -0.08839,0.0442 -0.101564,0.0508 -0.05545,0.0442 -0.132582,0.0442 -0.03742,0 -0.153018,-0.008 -0.176777,0 -0.01976,0.007 -0.02556,0.0349 -0.04419,0.0442 -0.01318,0.007 -0.03102,-0.007 -0.04419,0 -0.01863,0.009 -0.02556,0.0349 -0.04419,0.0442 -0.01318,0.007 -0.04419,-0.0147 -0.04419,0 0,0.0751 0.08926,0.16088 0.04419,0.22097 0.02258,0.17123 -0.167856,-0.0973 -0.220971,-0.0442 -0.01042,0.0104 0.01042,0.0338 0,0.0442 -0.01042,0.0104 -0.03378,-0.0104 -0.04419,0 -0.01042,0.0104 0.01042,0.0338 0,0.0442 -0.01042,0.0104 -0.03761,-0.0132 -0.04419,0 -0.01318,0.0264 0.01318,0.062 0,0.0884 -0.0066,0.0132 -0.03378,-0.0104 -0.0442,0 -0.01042,0.0104 0.0066,0.031 0,0.0442 -0.0273,0.0546 -0.04267,0.0442 -0.08839,0.0442 -0.01473,0 -0.05893,0 -0.04419,0 0.117851,0 0.235702,0 0.353553,0 0.02946,0 0.05893,0 0.08839,0 0.02946,0 0.0598,0.007 0.08839,0 0.03196,-0.008 0.05643,-0.0362 0.08839,-0.0442 0.04288,-0.0107 0.08839,0 0.132583,0 0.08839,0 0.176776,0 0.265165,0 0.04162,0 0.19583,-0.008 0.220971,0 0.08535,0.0284 0.01545,0.0751 0.04419,0.13258 0.0066,0.0132 0.03378,-0.0104 0.04419,0 0.01042,0.0104 0,0.0295 0,0.0442 0,0.0147 0.0066,0.031 0,0.0442 -0.0093,0.0186 -0.02443,0.0376 -0.04419,0.0442 -0.04193,0.014 -0.08839,0 -0.132583,0 -0.05559,0 -0.197133,0.0273 -0.220971,-0.0442 -0.0093,-0.028 0,-0.0589 0,-0.0884 0,-0.0884 0,-0.17678 0,-0.26517 0,-0.0884 0,-0.17677 0,-0.26516 0,-0.0295 0,-0.0589 0,-0.0884 0,-0.0147 -0.0066,-0.031 0,-0.0442 0.0093,-0.0186 0.03488,-0.0256 0.0442,-0.0442 0.06759,-0.13518 -0.255969,0.10055 0.132582,-0.13258 0.02825,-0.017 0.0651,-0.0209 0.08839,-0.0442 0.02329,-0.0233 0.01679,-0.0701 0.04419,-0.0884 0.02451,-0.0164 0.05981,0.007 0.08839,0 0.03196,-0.008 0.05714,-0.0338 0.08839,-0.0442 0.0057,-0.002 0.128923,-0.002 0.132583,0 0.08586,0.0429 0.04419,0.14479 0.04419,0.22097 0,0.0737 -0.0067,0.14762 0,0.22098 0.05388,0.59269 0.04419,-0.002 0.04419,0.44194 0,0.11785 0,0.2357 0,0.35355 0,0.0147 -0.01042,0.0338 0,0.0442 0.01042,0.0104 0.03378,0.0104 0.04419,0 0.01042,-0.0104 -0.0047,-0.0302 0,-0.0442 0.01042,-0.0312 0.02946,-0.0589 0.0442,-0.0884 0.01473,-0.0295 0.02725,-0.0601 0.04419,-0.0884 0.06225,-0.10375 0.09217,-0.11995 0.132582,-0.22097 0.0173,-0.0433 0.0329,-0.0874 0.04419,-0.13258 0.0036,-0.0143 -0.0047,-0.0582 0,-0.0442 0.179387,0.53816 -0.01792,-0.0454 0.0442,0.26516 0.04598,0.22991 0.02946,0.0442 0.08839,0.22097 0.0093,0.028 -0.02083,0.0676 0,0.0884 0.03111,0.0311 0.08175,-0.0336 0.08839,-0.0442 0.06295,-0.10072 0.123662,-0.20313 0.176777,-0.30936 0.106954,-0.21391 0.139272,-0.3731 0.265165,-0.57453 0.02208,-0.0353 0.06975,-0.0511 0.08839,-0.0884 0.01318,-0.0264 -0.01318,-0.062 0,-0.0884 0.0066,-0.0132 0.02946,0 0.0442,0 0.01473,0 0.04062,-0.0143 0.04419,0 0.01429,0.0572 0,0.11785 0,0.17677 0,0.10312 0,0.20624 0,0.30936 0,0.0442 0,0.0884 0,0.13258 0,0.0295 -0.0093,0.0604 0,0.0884 0.07376,0.22128 0.0098,-0.0737 0.08839,0.0442 0.06283,0.0942 0.04419,0.2052 0.04419,0.30936 0,0.10312 0,0.20624 0,0.30936 0,0.0295 0,0.0589 0,0.0884 0,0.0147 0,0.0589 0,0.0442 0,-0.0884 0,-0.17678 0,-0.26517 0,-0.0147 0,-0.0295 0,-0.0442 0,-0.0147 0.01042,-0.0338 0,-0.0442 -2.34e-4,-2.3e-4 -0.131105,3.7e-4 -0.132582,0 -0.03196,-0.008 -0.05893,-0.0295 -0.08839,-0.0442 -0.04419,0 -0.08899,0.007 -0.132582,0 -0.04595,-0.008 -0.09092,-0.0234 -0.132583,-0.0442 -0.0317,-0.0159 -0.06948,-0.10092 -0.08839,-0.0442 -0.03872,0.11616 0.06765,0.32171 0.08839,0.39775 0.01976,0.0725 0.02443,0.1485 0.04419,0.22097 0.02451,0.0899 0.05567,0.17793 0.08839,0.26517 0.01157,0.0308 0.0209,0.0651 0.04419,0.0884 0.02329,0.0233 0.0651,0.0209 0.08839,0.0442 0.01042,0.0104 -0.01042,0.0338 0,0.0442 0.01042,0.0104 0.03378,0.0104 0.0442,0 0.01042,-0.0104 -0.0047,-0.0302 0,-0.0442 0.01042,-0.0312 0.02725,-0.0601 0.04419,-0.0884 0.08362,-0.13938 0.0727,-0.11689 0.176776,-0.22097 0.01473,-0.0147 0.02686,-0.0326 0.0442,-0.0442 0.02741,-0.0183 0.06098,-0.0259 0.08839,-0.0442 0.08086,-0.0539 0.0044,-0.0563 0.132582,-0.0884 0.04288,-0.0107 0.08839,0 0.132583,0 0.07366,0 0.147314,0 0.220971,0 0.01473,0 0.03378,-0.0104 0.04419,0 0.01042,0.0104 -0.0066,0.031 0,0.0442 0.0093,0.0186 0.03914,0.024 0.04419,0.0442 0.01429,0.0572 0,0.11785 0,0.17678 0,0.0147 0,0.0295 0,0.0442 0,0.0147 0.01318,0.0376 0,0.0442 -0.02635,0.0132 -0.05892,0 -0.08839,0 -0.07236,0 -0.08839,-0.016 -0.08839,-0.0884"
       id="path5956" />
    <path
       transform="translate(296.49688,106.24631)"
       style="fill:none;fill-rule:evenodd;stroke:#000000;stroke-width:0.60000002;stroke-linecap:butt;stroke-linejoin:miter;stroke-miterlimit:4;stroke-dasharray:none;stroke-opacity:1"
       d="m 45.873544,124.22493 c -0.265165,0 -0.53033,0 -0.795495,0 -0.03074,0 -0.204989,0.008 -0.220971,0 -0.01863,-0.009 -0.02556,-0.0349 -0.04419,-0.0442 -0.0099,-0.005 -0.166275,0 -0.176777,0 -0.08839,0 -0.176776,0 -0.265165,0 -0.07366,0 -0.147313,0 -0.22097,0 -0.02946,0 -0.06044,-0.009 -0.08839,0 -0.137944,0.046 0.01473,0.0295 -0.04419,0.0884 -0.01042,0.0104 -0.04419,0.0147 -0.04419,0 0,-0.004 0.241174,0.005 0.265165,0 0.232018,-0.0464 0.06401,-0.0132 0.176777,-0.0884 0.0082,-0.005 0.173944,-0.0855 0.176776,-0.0884 0.02329,-0.0233 0.0209,-0.0651 0.04419,-0.0884 0.111631,-0.11163 0.05095,-0.017 0.132583,-0.0442 0.320117,-0.1067 -0.06968,0.0127 0.132583,-0.0884 0.01143,-0.006 0.23384,0 0.265165,0 0.02946,0 0.05893,0 0.08839,0 0.01473,0 0.05892,0 0.04419,0 -0.02946,0 -0.0595,-0.006 -0.08839,0 -0.05134,0.0103 -0.170464,0.0547 -0.220971,0.0884 -0.07218,0.0481 -0.01814,0.0655 -0.132583,0.0884 -0.337141,0 0.03486,-0.0198 -0.220971,0.0442 -0.04287,0.0107 -0.09066,-0.014 -0.132582,0 -0.03125,0.0104 -0.05714,0.0338 -0.08839,0.0442 -0.02795,0.009 -0.05893,0 -0.08839,0 -0.03613,0 -0.28696,-0.007 -0.309359,0 -0.01976,0.007 -0.02556,0.0349 -0.04419,0.0442 -0.01318,0.007 -0.03378,-0.0104 -0.04419,0 -0.01042,0.0104 0.0066,0.031 0,0.0442 -0.146574,0.14657 0.02083,-0.0417 -0.04419,0.0884 -0.0093,0.0186 -0.02946,0.0295 -0.0442,0.0442 -0.01473,0.0147 -0.02556,0.0349 -0.04419,0.0442 -0.01318,0.007 -0.03761,-0.0132 -0.04419,0 -0.01318,0.0264 0.01318,0.062 0,0.0884 -0.0066,0.0132 -0.03102,-0.007 -0.04419,0 -0.01863,0.009 -0.02686,0.0326 -0.04419,0.0442 -0.02741,0.0183 -0.0651,0.0209 -0.08839,0.0442 -0.01042,0.0104 0.0066,0.031 0,0.0442 -0.0093,0.0186 -0.03488,0.0256 -0.04419,0.0442 -0.0066,0.0132 0.0066,0.031 0,0.0442 -0.02023,0.0404 -0.100286,0.0776 -0.132582,0.0884 -0.01398,0.005 -0.03102,-0.007 -0.0442,0 -0.01863,0.009 -0.02556,0.0349 -0.04419,0.0442 -0.01318,0.007 -0.03102,-0.007 -0.04419,0 -0.01863,0.009 -0.02556,0.0349 -0.04419,0.0442 -0.108848,0.0544 0.0399,-0.12828 -0.132583,0.0442 -0.01042,0.0104 0.01042,0.0338 0,0.0442 -0.01042,0.0104 -0.03102,-0.007 -0.04419,0 -0.01863,0.009 -0.02556,0.0349 -0.04419,0.0442 -0.01318,0.007 -0.03378,-0.0104 -0.04419,0 -0.01042,0.0104 -0.01042,0.0338 0,0.0442 0.02031,0.0203 0.100757,-0.023 0.132582,-0.0442 0.01733,-0.0115 0.02686,-0.0326 0.04419,-0.0442 0.02741,-0.0183 0.05609,-0.0377 0.08839,-0.0442 0.018,-0.004 0.248512,0.008 0.265165,0 0.01863,-0.009 0.02556,-0.0349 0.04419,-0.0442 0.01318,-0.007 0.02946,0 0.04419,0 0.01473,0 0.02946,0 0.04419,0 0.103644,0 -0.02083,0.0104 0.08839,-0.0442 0.01162,-0.006 0.153666,0 0.176777,0 0.04282,0 0.238813,-0.009 0.265165,0 0.03125,0.0104 0.05893,0.0295 0.08839,0.0442 0.02946,0.0147 0.06098,0.0259 0.08839,0.0442 0.01733,0.0116 0.02443,0.0376 0.04419,0.0442 0.02795,0.009 0.05893,0 0.08839,0 0.02946,0 0.05893,0 0.08839,0 0.220971,0 0.441942,0 0.662913,0 0.07366,0 0.147314,0 0.220971,0 0.02946,0 0.06044,-0.009 0.08839,0 0.274318,0.0914 -0.14688,-0.004 0.220971,0.0884 0.02858,0.007 0.06204,-0.0132 0.08839,0 0.01863,0.009 0.02556,0.0349 0.04419,0.0442 0.01345,0.007 0.11268,0 0.132583,0 0.10312,0 0.206239,0 0.309359,0 0.01623,0 0.174998,-0.002 0.176777,0 0.01042,0.0104 -0.01318,0.0376 0,0.0442 0.03953,0.0198 0.08839,0 0.132582,0 0.01747,0 0.202097,-0.009 0.220971,0 0.01863,0.009 0.02556,0.0349 0.04419,0.0442 0.01318,0.007 0.03378,-0.0104 0.0442,0 0.01042,0.0104 -0.01042,0.0338 0,0.0442 0.0221,0.0221 0.110485,-0.0221 0.132582,0 0.05893,0.0589 -0.07366,0.0442 0.04419,0.0442 0.01473,0 0.02946,0 0.04419,0 0.01473,0 0.03378,-0.0104 0.0442,0 0.01042,0.0104 -0.01042,0.0338 0,0.0442 0.01042,0.0104 0.04419,-0.0147 0.04419,0 0,0.0147 -0.03378,0.0104 -0.04419,0 -0.02329,-0.0233 -0.02592,-0.061 -0.0442,-0.0884 -0.01156,-0.0173 -0.02946,-0.0295 -0.04419,-0.0442 -0.01473,-0.0147 -0.02686,-0.0326 -0.04419,-0.0442 -0.02741,-0.0183 -0.06098,-0.0259 -0.08839,-0.0442 -0.02143,-0.0143 -0.206686,-0.19954 -0.220971,-0.22097 -0.01827,-0.0274 -0.02592,-0.061 -0.04419,-0.0884 -0.01156,-0.0173 -0.02946,-0.0295 -0.0442,-0.0442 -0.01473,-0.0147 -0.02556,-0.0349 -0.04419,-0.0442 -0.01318,-0.007 -0.03378,0.0104 -0.04419,0 -0.01042,-0.0104 0.0047,-0.0302 0,-0.0442 -0.01042,-0.0312 -0.0209,-0.0651 -0.04419,-0.0884 -0.01042,-0.0104 -0.03022,0.005 -0.04419,0 -0.03125,-0.0104 -0.0651,-0.0209 -0.08839,-0.0442 -0.01042,-0.0104 0.0066,-0.031 0,-0.0442 -0.02652,-0.053 -0.106066,-0.0795 -0.132582,-0.13258 -0.0066,-0.0132 0.01042,-0.0338 0,-0.0442 -0.01042,-0.0104 -0.03102,0.007 -0.04419,0 -0.01863,-0.009 -0.02946,-0.0295 -0.04419,-0.0442 -0.01473,-0.0147 -0.03488,-0.0256 -0.0442,-0.0442 -0.0066,-0.0132 0.0066,-0.031 0,-0.0442 -0.0093,-0.0186 -0.03488,-0.0256 -0.04419,-0.0442 -0.0066,-0.0132 0.01042,-0.0338 0,-0.0442 -0.02329,-0.0233 -0.0651,-0.0209 -0.08839,-0.0442 -0.01042,-0.0104 0.01042,-0.0338 0,-0.0442 -0.01042,-0.0104 -0.03102,0.007 -0.04419,0 -0.01863,-0.009 -0.02946,-0.0295 -0.04419,-0.0442 -0.02946,0 -0.06044,0.009 -0.08839,0 -0.01976,-0.007 -0.02556,-0.0349 -0.04419,-0.0442 -0.02343,-0.0117 -0.190906,0.01 -0.220971,0 -0.01976,-0.007 -0.02556,-0.0349 -0.04419,-0.0442 -0.02635,-0.0132 -0.06204,0.0132 -0.08839,0 -0.03727,-0.0186 -0.04886,-0.0752 -0.08839,-0.0884 -0.0029,-9.6e-4 -0.218068,-9.6e-4 -0.220971,0 -0.06789,0.0226 -0.03424,0.0965 -0.08839,0.13259 -0.0088,0.006 -0.19091,0 -0.220971,0 -0.01473,0 -0.03378,-0.0104 -0.04419,0 -0.004,0.004 -0.0023,0.13145 0,0.13258 0.02635,0.0132 0.06044,-0.009 0.08839,0 0.03953,0.0132 0.05112,0.0697 0.08839,0.0884 0.01318,0.007 0.02946,0 0.04419,0 0.02946,0.0147 0.06098,0.0259 0.08839,0.0442 0.01733,0.0116 0.03488,0.0256 0.04419,0.0442 0.0066,0.0132 -0.01226,0.036 0,0.0442 0.03876,0.0258 0.09092,0.0234 0.132583,0.0442 0.01863,0.009 0.02556,0.0349 0.04419,0.0442 0.01318,0.007 0.02946,0 0.04419,0 0.01473,0.0147 0.02556,0.0349 0.04419,0.0442 0.02635,0.0132 0.06044,-0.009 0.08839,0 0.03125,0.0104 0.05714,0.0338 0.08839,0.0442 0.01398,0.005 0.02946,0 0.04419,0 0.02946,0 0.05933,-0.005 0.08839,0 0.05991,0.01 0.118374,0.0275 0.176776,0.0442 0.04479,0.0128 0.0869,0.0351 0.132583,0.0442 0.02889,0.006 0.06044,-0.009 0.08839,0 0.01976,0.007 0.02556,0.0349 0.04419,0.0442 0.01318,0.007 0.05849,-0.004 0.0442,0 -0.07287,0.0182 -0.146228,0.0367 -0.220971,0.0442 -0.07329,0.007 -0.147314,0 -0.220971,0 -0.08839,0 -0.176777,0 -0.265165,0 -0.10312,0 -0.20624,0 -0.309359,0 -0.0442,0 -0.08873,0.005 -0.132583,0 -0.07454,-0.009 -0.146435,-0.0349 -0.220971,-0.0442 -0.04385,-0.005 -0.08925,0.009 -0.132582,0 -0.0323,-0.006 -0.05609,-0.0377 -0.08839,-0.0442 -7.28e-4,-1.5e-4 -0.29652,-0.004 -0.309359,0 -0.03125,0.0104 -0.06098,0.0259 -0.08839,0.0442 -0.146574,0.14657 0.04167,-0.0208 -0.08839,0.0442 -0.01863,0.009 -0.04419,0.065 -0.04419,0.0442 0,-0.13309 0.320708,-0.24591 0.397748,-0.26517 0.221451,-0.0554 0.438555,-0.0442 0.662912,-0.0442 0.05893,0 0.117852,0 0.176777,0 0.01473,0 0.03761,-0.0132 0.04419,0 0.01768,0.0353 -0.01768,0.0972 0,0.13258 0.0093,0.0186 0.02946,0.0295 0.04419,0.0442 0.0773,0.0773 0.157299,0.10561 0.265165,0.13258 0.01429,0.004 0.03102,-0.007 0.0442,0 0.01863,0.009 0.02946,0.0295 0.04419,0.0442 0.01473,0.0147 0.05893,0.0295 0.04419,0.0442 -0.01473,0.0147 -0.06153,-0.0326 -0.04419,-0.0442 0.05054,-0.0337 0.119154,-0.025 0.176777,-0.0442 0.03125,-0.0104 0.05893,-0.0295 0.08839,-0.0442"
       id="path5958" />
  </g>
  <path
     style="fill:#ffffff;fill-rule:evenodd;stroke:#ffffff;stroke-width:0.5;stroke-linecap:butt;stroke-linejoin:miter;stroke-opacity:1;fill-opacity:1;stroke-miterlimit:4;stroke-dasharray:none"
     d="m 190.3885,95.61845 c 0.6491,-0.387994 -0.77329,0.640927 -0.53033,0.883883 0.0417,0.04167 0.13511,-0.04167 0.17678,0 0.0417,0.04167 -0.0264,0.124072 0,0.176777 0.0373,0.07454 0.11785,0.117851 0.17677,0.176777 0.25665,0.256644 0.19137,0.176776 0.53033,0.176776 0.11785,0 0.24815,0.05271 0.35356,0 0.0527,-0.02635 -0.0417,-0.13511 0,-0.176776 0.0833,-0.08333 0.27022,0.08333 0.35355,0 0.0417,-0.04167 0,-0.117851 0,-0.176777 0,-0.05893 0,-0.117851 0,-0.176777 0,-0.05892 0,-0.117851 0,-0.176776 0,-0.05893 0.0264,-0.124072 0,-0.176777 -0.0373,-0.07454 -0.11785,-0.117851 -0.17678,-0.176777 -0.34857,-0.348573 -0.0959,-0.156565 -0.88388,-0.353553 z"
     id="path6021" />
  
</svg>
